<svg width="1920" height="1080" viewBox="0 0 1920 1080" fill="none" xmlns="http://www.w3.org/2000/svg">
<g clip-path="url(#clip0_33_330)">
<rect width="1920" height="1080" fill="white"/>
<g opacity="0.3">
<mask id="mask0_33_330" style="mask-type:alpha" maskUnits="userSpaceOnUse" x="6" y="-220" width="1915" height="1127">
<path d="M6 -159.579C641.503 48.1686 1284.56 -367.354 1920.09 -159.579C1920.09 175.817 1920.09 511.213 1920.09 846.609C1284.56 638.862 641.503 1054.38 6 846.609C6 511.213 6 175.817 6 -159.579Z" fill="white"/>
<path d="M6 -159.579C641.503 48.1687 1284.56 -367.354 1920.09 -159.579C1920.09 -128.635 1920.09 -113.136 1920.09 -82.1922C1284.56 -289.94 641.503 125.555 6 -82.1922C6 -113.136 6 -128.635 6 -159.579Z" fill="#E71731"/>
<path d="M6 -4.77859C641.503 202.969 1284.56 -212.554 1920.09 -4.77859C1920.09 26.1649 1920.09 41.6642 1920.09 72.6076C1284.56 -135.14 641.503 280.355 6 72.6076C6 41.6642 6 26.1649 6 -4.77859Z" fill="#E71731"/>
<path d="M6 150.021C641.503 357.769 1284.56 -57.7261 1920.09 150.021C1920.09 180.965 1920.09 196.464 1920.09 227.407C1284.56 19.6601 641.503 435.155 6 227.407C6 196.464 6 180.965 6 150.021Z" fill="#E71731"/>
<path d="M6 304.821C641.503 512.568 1284.56 97.0737 1920.09 304.821C1920.09 335.764 1920.09 351.264 1920.09 382.207C1284.56 174.46 641.503 589.955 6 382.207C6 351.264 6 335.764 6 304.821Z" fill="#E71731"/>
<path d="M6 459.623C641.503 667.371 1284.56 251.876 1920.09 459.623C1920.09 490.567 1920.09 506.066 1920.09 537.01C1284.56 329.263 641.503 744.757 6 537.01C6 506.066 6 490.567 6 459.623Z" fill="#E71731"/>
<path d="M6 614.422C641.503 822.17 1284.56 406.675 1920.09 614.422C1920.09 645.393 1920.09 660.865 1920.09 691.836C1284.56 484.061 641.503 899.556 6 691.836C6 660.865 6 645.393 6 614.422Z" fill="#E71731"/>
<path d="M6 769.223C641.503 976.971 1284.56 561.476 1920.09 769.223C1920.09 800.194 1920.09 815.666 1920.09 846.609C1284.56 638.862 641.503 1054.38 6 846.609C6 815.666 6 800.194 6 769.223Z" fill="#E71731"/>
<path d="M6 -159.578C257.201 -77.2926 512.609 -89.3045 770.729 -127.583C770.729 53.0409 770.729 233.637 770.729 414.232C512.609 452.51 257.201 464.522 6 382.209C6 201.614 6 21.0179 6 -159.578Z" fill="#304F7D"/>
<path d="M105.336 -31.9849C112.615 -24.8995 116.241 -21.4119 123.547 -14.4648C120.752 -6.5214 119.368 -2.56362 116.573 5.35215C123.852 1.75407 127.506 -0.0726462 134.785 -3.78143C142.092 3.08259 145.717 6.48692 153.024 13.2402C150.229 4.13433 148.845 -0.432454 146.049 -9.59371C153.329 -13.3855 156.982 -15.2952 164.261 -19.2254C155.266 -20.9138 150.755 -21.8272 141.759 -23.7092C138.964 -32.8705 137.58 -37.4373 134.785 -46.5986C132.017 -38.6551 130.633 -34.6696 127.837 -26.7262C118.842 -28.719 114.331 -29.7707 105.336 -31.9849Z" fill="white"/>
<path d="M232.098 -8.43176C239.405 -2.17664 243.03 0.895402 250.309 7.03981C247.541 15.2877 246.158 19.4118 243.362 27.632C250.641 23.2313 254.295 20.9893 261.574 16.4502C268.853 22.5392 272.506 25.5285 279.786 31.5068C277.018 22.6777 275.606 18.277 272.839 9.42024C280.118 4.85345 283.772 2.52843 291.051 -2.17675C282.056 -2.92404 277.544 -3.33904 268.549 -4.22472C265.753 -13.0815 264.37 -17.5099 261.574 -26.3667C258.806 -18.0912 257.395 -13.9673 254.627 -5.71941C245.604 -6.7158 241.121 -7.2693 232.098 -8.43176Z" fill="white"/>
<path d="M358.889 1.78153C366.168 7.31703 369.822 10.0573 377.101 15.5097C374.333 24.0344 372.921 28.269 370.153 36.766C377.432 31.6733 381.086 29.0993 388.365 23.896C395.644 29.2931 399.298 31.9779 406.577 37.292C403.782 28.712 402.397 24.422 399.63 15.8419C406.909 10.5832 410.535 7.95362 417.842 2.61186C408.819 2.66721 404.335 2.63975 395.312 2.55672C392.544 -6.02331 391.133 -10.3412 388.365 -18.9212C385.57 -10.3965 384.186 -6.13407 381.391 2.36292C372.396 2.19686 367.884 2.08598 358.889 1.78153Z" fill="white"/>
<path d="M485.68 0.950567C492.959 5.93252 496.585 8.39598 503.892 13.2949C501.096 22.0133 499.712 26.3587 496.917 35.0771C504.224 29.4033 507.849 26.5525 515.129 20.8232C522.436 25.6945 526.061 28.1023 533.368 32.8905C530.573 24.5319 529.189 20.3249 526.393 11.9386C533.7 6.18167 537.326 3.27569 544.605 -2.56426C535.61 -1.9 531.098 -1.56798 522.103 -1.01443C519.308 -9.40071 517.924 -13.6076 515.129 -21.9939C512.361 -13.2755 510.977 -8.90252 508.182 -0.184103C499.187 0.314093 494.675 0.535404 485.68 0.950567Z" fill="white"/>
<path d="M612.441 -8.59893C619.721 -4.05982 623.374 -1.81789 630.653 2.66587C627.886 11.5503 626.502 15.9788 623.706 24.8633C630.986 18.7742 634.639 15.702 641.918 9.58524C649.197 14.0413 652.851 16.2555 660.13 20.6562C657.362 12.436 655.951 8.31213 653.183 0.0919132C660.462 -6.08017 664.115 -9.15248 671.394 -15.3799C662.399 -14.2451 657.888 -13.6915 648.893 -12.6397C646.098 -20.8876 644.713 -25.0117 641.918 -33.2319C639.15 -24.3474 637.739 -19.919 634.971 -11.0345C625.948 -10.0381 621.464 -9.53997 612.441 -8.59893Z" fill="white"/>
<path d="M41.9258 4.85263C49.205 12.3809 52.8581 16.1174 60.1373 23.5349C57.3695 31.2846 55.9581 35.1595 53.1903 42.9092C60.4695 39.7816 64.1231 38.1762 71.4023 34.9103C78.6815 42.2172 82.3346 45.8429 89.6138 53.0391C86.846 43.7394 85.4346 39.0896 82.6668 29.79C89.946 26.441 93.5997 24.725 100.879 21.2653C91.8837 19.0235 87.372 17.8333 78.3768 15.3977C75.5814 6.07033 74.1978 1.42056 71.4023 -7.93444C68.6346 -0.129378 67.2226 3.74542 64.4548 11.5228C55.432 8.94879 50.9486 7.62038 41.9258 4.85263Z" fill="white"/>
<path d="M168.715 35.934C175.994 42.5766 179.647 45.8702 186.926 52.4021C184.159 60.4839 182.747 64.5248 179.979 72.6067C187.259 68.5934 190.912 66.5453 198.191 62.4214C205.471 68.8703 209.124 72.0808 216.403 78.4189C213.607 69.4514 212.224 64.9678 209.456 55.9726C216.735 51.7656 220.361 49.6344 227.668 45.3168C218.645 44.1266 214.161 43.4623 205.138 42.0784C202.371 33.1109 200.959 28.5994 198.191 19.6042C195.396 27.7138 194.012 31.7823 191.216 39.8918C182.221 38.3972 177.71 37.6223 168.715 35.934Z" fill="white"/>
<path d="M295.506 52.5405C302.785 58.4081 306.411 61.3141 313.718 67.0987C310.922 75.485 309.538 79.6645 306.743 88.0231C314.05 83.2625 317.676 80.8546 324.955 75.9834C332.262 81.6849 335.888 84.5358 343.194 90.1543C340.399 81.4636 339.015 77.0904 336.219 68.3996C343.526 63.473 347.152 60.982 354.431 55.9447C345.436 55.6126 340.925 55.419 331.929 54.9485C329.134 46.23 327.75 41.857 324.955 33.1386C322.187 41.5526 320.803 45.7317 318.008 54.1457C309.013 53.5645 304.501 53.2601 295.506 52.5405Z" fill="white"/>
<path d="M422.27 56.9424C429.576 62.1735 433.202 64.775 440.482 69.923C437.714 78.5584 436.329 82.8484 433.534 91.4561C440.813 86.0589 444.467 83.3467 451.746 77.8665C459.025 82.9868 462.679 85.5054 469.958 90.5428C467.19 82.0734 465.806 77.8388 463.011 69.3695C470.29 63.834 473.943 61.0662 481.223 55.4753C472.227 55.8351 467.716 56.0013 458.721 56.2781C455.925 47.7811 454.542 43.5463 451.746 35.0494C448.978 43.6847 447.567 48.0025 444.799 56.6102C435.776 56.804 431.292 56.8594 422.27 56.9424Z" fill="white"/>
<path d="M549.061 51.462C556.34 56.1948 559.993 58.5474 567.273 63.2249C564.477 72.0263 563.093 76.4271 560.326 85.2285C567.605 79.3332 571.258 76.3717 578.537 70.421C585.816 75.0709 589.47 77.3682 596.749 81.9626C593.954 73.6594 592.57 69.5077 589.802 61.2045C597.081 55.2261 600.707 52.2094 608.014 46.1757C598.991 47.089 594.507 47.532 585.484 48.3623C582.716 40.059 581.305 35.9074 578.537 27.6042C575.742 36.4056 574.358 40.8063 571.563 49.6078C562.567 50.3827 558.056 50.77 549.061 51.462Z" fill="white"/>
<path d="M675.852 38.3993C683.131 42.7723 686.784 44.9588 694.064 49.2765C691.268 58.2163 689.884 62.6725 687.089 71.6123C694.396 65.3572 698.021 62.2295 705.301 55.9467C712.607 60.2644 716.233 62.3956 723.54 66.6579C720.745 58.4931 719.361 54.3968 716.566 46.232C723.872 39.9215 727.498 36.7661 734.777 30.428C725.782 31.7011 721.271 32.3378 712.276 33.5833C709.48 25.3908 708.096 21.3221 705.328 13.1295C702.533 22.0694 701.149 26.5532 698.354 35.4653C689.358 36.6831 684.847 37.2645 675.852 38.3993Z" fill="white"/>
<path d="M106.885 77.2592C114.164 84.317 117.818 87.8044 125.097 94.7514C122.329 102.695 120.917 106.653 118.149 114.568C125.428 110.97 129.082 109.144 136.361 105.407C143.64 112.271 147.294 115.676 154.573 122.401C151.806 113.295 150.394 108.729 147.626 99.595C154.905 95.7755 158.559 93.838 165.838 89.9354C156.815 88.2194 152.331 87.334 143.308 85.4519C140.541 76.3183 139.157 71.7514 136.361 62.5901C133.566 70.5612 132.182 74.5191 129.414 82.4625C120.391 80.4697 115.88 79.4457 106.885 77.2592Z" fill="white"/>
<path d="M233.674 100.619C240.953 106.846 244.607 109.946 251.886 116.063C249.09 124.311 247.707 128.435 244.939 136.683C252.218 132.254 255.844 130.012 263.15 125.473C270.43 131.534 274.083 134.551 281.362 140.502C278.567 131.673 277.183 127.272 274.387 118.443C281.694 113.848 285.32 111.524 292.627 106.818C283.604 106.071 279.093 105.684 270.097 104.77C267.302 95.9413 265.918 91.5128 263.15 82.656C260.355 90.9315 258.971 95.0557 256.176 103.304C247.181 102.335 242.669 101.781 233.674 100.619Z" fill="white"/>
<path d="M360.438 110.692C367.744 116.2 371.37 118.968 378.677 124.393C375.882 132.917 374.498 137.152 371.703 145.649C378.982 140.557 382.635 137.955 389.914 132.779C397.221 138.149 400.847 140.833 408.154 146.147C405.358 137.567 403.975 133.277 401.179 124.697C408.458 119.439 412.111 116.809 419.391 111.468C410.395 111.523 405.884 111.523 396.889 111.44C394.094 102.832 392.709 98.542 389.914 89.9343C387.146 98.459 385.735 102.721 382.967 111.246C373.972 111.08 369.46 110.969 360.438 110.692Z" fill="white"/>
<path d="M487.229 109.723C494.508 114.704 498.161 117.168 505.441 122.067C502.673 130.758 501.261 135.131 498.494 143.821C505.773 138.175 509.426 135.324 516.705 129.595C523.984 134.439 527.638 136.847 534.917 141.635C532.149 133.276 530.738 129.069 527.97 120.683C535.249 114.926 538.902 112.02 546.182 106.18C537.159 106.844 532.675 107.176 523.653 107.73C520.885 99.3437 519.5 95.1642 516.705 86.7502C513.91 95.4963 512.526 99.8418 509.758 108.588C500.735 109.086 496.224 109.307 487.229 109.723Z" fill="white"/>
<path d="M614.018 100.091C621.297 104.602 624.95 106.872 632.229 111.356C629.434 120.24 628.05 124.669 625.255 133.525C632.561 127.436 636.187 124.392 643.494 118.248C650.773 122.704 654.426 124.918 661.706 129.319C658.91 121.098 657.527 116.974 654.731 108.754C662.038 102.582 665.664 99.4822 672.971 93.2825C663.948 94.4172 659.436 94.9706 650.441 96.0224C647.646 87.8022 646.262 83.6784 643.494 75.4305C640.699 84.3149 639.314 88.7434 636.519 97.6279C627.524 98.6519 623.013 99.15 614.018 100.091Z" fill="white"/>
<path d="M43.8633 113.821C51.1425 121.35 54.7956 125.086 62.0748 132.476C59.2793 140.253 57.8957 144.128 55.1002 151.878C62.4071 148.723 66.033 147.117 73.3398 143.824C80.619 151.13 84.2721 154.756 91.5513 161.925C88.7559 152.653 87.3722 148.003 84.5768 138.703C91.8836 135.327 95.5095 133.611 102.816 130.123C93.7935 127.909 89.282 126.747 80.2868 124.311C77.4913 115.011 76.1076 110.334 73.3398 101.006C70.5444 108.812 69.1602 112.687 66.3648 120.464C57.3696 117.918 52.8585 116.589 43.8633 113.821Z" fill="white"/>
<path d="M170.625 144.68C177.932 151.323 181.557 154.616 188.864 161.121C186.069 169.23 184.685 173.271 181.89 181.353C189.169 177.312 192.822 175.264 200.102 171.112C207.408 177.561 211.034 180.744 218.313 187.082C215.545 178.115 214.161 173.631 211.366 164.663C218.645 160.429 222.299 158.298 229.578 153.98C220.583 152.79 216.071 152.153 207.076 150.769C204.281 141.802 202.897 137.29 200.102 128.295C197.334 136.432 195.922 140.473 193.154 148.583C184.159 147.116 179.648 146.341 170.625 144.68Z" fill="white"/>
<path d="M297.418 161.066C304.697 166.933 308.35 169.84 315.629 175.624C312.862 184.01 311.45 188.19 308.682 196.576C315.962 191.788 319.615 189.352 326.895 184.481C334.174 190.182 337.827 193.005 345.106 198.624C342.338 189.933 340.927 185.588 338.159 176.897C345.438 171.943 349.092 169.452 356.371 164.415C347.348 164.11 342.864 163.889 333.841 163.446C331.074 154.728 329.69 150.382 326.895 141.636C324.099 150.05 322.715 154.257 319.948 162.643C310.925 162.09 306.413 161.785 297.418 161.066Z" fill="white"/>
<path d="M424.207 165.3C431.486 170.531 435.14 173.132 442.419 178.28C439.624 186.916 438.239 191.206 435.472 199.813C442.751 194.416 446.377 191.704 453.684 186.224C460.963 191.317 464.616 193.863 471.896 198.873C469.1 190.403 467.716 186.169 464.948 177.699C472.227 172.164 475.853 169.396 483.16 163.778C474.137 164.165 469.653 164.331 460.631 164.608C457.863 156.111 456.451 151.876 453.684 143.379C450.888 152.015 449.504 156.332 446.709 164.968C437.714 165.161 433.202 165.244 424.207 165.3Z" fill="white"/>
<path d="M550.998 159.71C558.277 164.442 561.903 166.767 569.21 171.445C566.415 180.246 565.03 184.647 562.235 193.448C569.514 187.553 573.168 184.591 580.447 178.641C587.754 183.291 591.38 185.588 598.687 190.155C595.891 181.879 594.507 177.727 591.712 169.424C598.991 163.446 602.644 160.429 609.924 154.395C600.928 155.309 596.417 155.752 587.422 156.582C584.626 148.279 583.242 144.127 580.447 135.824C577.679 144.625 576.296 149.026 573.5 157.855C564.505 158.63 559.993 158.99 550.998 159.71Z" fill="white"/>
<path d="M677.762 146.562C685.041 150.935 688.695 153.094 695.974 157.412C693.206 166.351 691.795 170.835 689.027 179.747C696.306 173.52 699.959 170.365 707.238 164.082C714.517 168.399 718.171 170.531 725.45 174.793C722.683 166.628 721.271 162.532 718.503 154.339C725.783 148.056 729.436 144.874 736.715 138.535C727.72 139.836 723.208 140.473 714.185 141.718C711.417 133.526 710.034 129.429 707.238 121.265C704.443 130.204 703.059 134.66 700.291 143.628C691.268 144.818 686.785 145.427 677.762 146.562Z" fill="white"/>
<path d="M45.0527 221.153C52.3319 228.654 55.9856 232.39 63.2647 239.78C60.4693 247.53 59.0851 251.432 56.2897 259.154C63.5966 255.999 67.2224 254.394 74.5293 251.1C81.8085 258.407 85.4344 262.033 92.7413 269.201C89.9459 259.902 88.5617 255.252 85.7662 245.952C93.0731 242.603 96.699 240.859 104.006 237.372C94.983 235.158 90.4714 233.996 81.4762 231.588C78.6808 222.26 77.297 217.61 74.5293 208.283C71.7338 216.088 70.3502 219.963 67.5548 227.768C58.5596 225.222 54.0479 223.893 45.0527 221.153Z" fill="white"/>
<path d="M171.812 251.848C179.119 258.49 182.745 261.757 190.025 268.261C187.257 276.37 185.873 280.411 183.078 288.52C190.357 284.452 194.01 282.432 201.289 278.252C208.596 284.701 212.222 287.884 219.501 294.194C216.733 285.255 215.35 280.771 212.554 271.776C219.833 267.569 223.486 265.41 230.766 261.092C221.77 259.902 217.259 259.265 208.264 257.909C205.469 248.942 204.084 244.43 201.289 235.435C198.521 243.572 197.11 247.613 194.342 255.723C185.319 254.283 180.835 253.508 171.812 251.848Z" fill="white"/>
<path d="M298.609 268.123C305.889 273.991 309.542 276.897 316.821 282.654C314.054 291.04 312.642 295.219 309.874 303.605C317.154 298.817 320.807 296.382 328.086 291.483C335.365 297.184 339.019 300.007 346.298 305.626C343.53 296.935 342.119 292.59 339.351 283.899C346.63 278.945 350.283 276.454 357.562 271.416C348.54 271.084 344.056 270.918 335.033 270.448C332.266 261.757 330.854 257.384 328.086 248.665C325.29 257.079 323.907 261.287 321.139 269.673C312.116 269.147 307.605 268.815 298.609 268.123Z" fill="white"/>
<path d="M425.396 272.245C432.676 277.476 436.329 280.078 443.608 285.226C440.813 293.833 439.429 298.151 436.633 306.759C443.94 301.334 447.566 298.622 454.873 293.141C462.152 298.234 465.778 300.753 473.084 305.79C470.289 297.321 468.905 293.086 466.11 284.617C473.417 279.081 477.043 276.286 484.35 270.695C475.327 271.083 470.815 271.249 461.82 271.525C459.025 263.028 457.641 258.794 454.873 250.297C452.078 258.932 450.693 263.25 447.898 271.885C438.903 272.107 434.392 272.162 425.396 272.245Z" fill="white"/>
<path d="M552.162 266.544C559.469 271.277 563.094 273.629 570.374 278.307C567.606 287.108 566.222 291.509 563.427 300.311C570.706 294.415 574.359 291.454 581.639 285.475C588.946 290.125 592.571 292.422 599.85 296.989C597.082 288.714 595.699 284.562 592.903 276.259C600.182 270.253 603.836 267.264 611.115 261.202C602.12 262.143 597.608 262.586 588.613 263.416C585.818 255.113 584.434 250.962 581.639 242.658C578.871 251.487 577.459 255.888 574.691 264.69C565.668 265.492 561.185 265.852 552.162 266.544Z" fill="white"/>
<path d="M678.953 253.369C686.232 257.715 689.885 259.901 697.165 264.219C694.397 273.159 692.985 277.615 690.218 286.555C697.497 280.3 701.15 277.172 708.43 270.861C715.709 275.179 719.362 277.31 726.641 281.573C723.873 273.408 722.462 269.312 719.694 261.147C726.973 254.836 730.627 251.653 737.906 245.315C728.883 246.616 724.399 247.253 715.377 248.498C712.609 240.333 711.225 236.237 708.43 228.044C705.634 236.984 704.25 241.468 701.483 250.408C692.46 251.626 687.948 252.207 678.953 253.369Z" fill="white"/>
<path d="M43.5039 328.875C50.7831 336.403 54.4091 340.139 61.7159 347.529C58.9205 355.307 57.5363 359.182 54.7409 366.904C62.0477 363.776 65.6736 362.171 72.9805 358.905C80.2596 366.212 83.8856 369.81 91.1925 377.006C88.397 367.706 87.0128 363.056 84.2174 353.757C91.5243 350.408 95.1502 348.692 102.429 345.205C93.4342 342.963 88.9226 341.8 79.9274 339.364C77.132 330.065 75.7482 325.387 72.9805 316.06C70.185 323.865 68.8014 327.74 66.0059 335.517C57.0107 332.971 52.4991 331.643 43.5039 328.875Z" fill="white"/>
<path d="M170.264 359.789C177.571 366.432 181.196 369.698 188.503 376.202C185.708 384.312 184.324 388.353 181.528 396.435C188.807 392.421 192.461 390.373 199.74 386.221C207.047 392.67 210.673 395.853 217.952 402.191C215.184 393.224 213.8 388.74 211.005 379.773C218.284 375.538 221.938 373.407 229.217 369.089C220.222 367.899 215.71 367.262 206.715 365.878C203.919 356.883 202.536 352.4 199.74 343.405C196.972 351.514 195.561 355.583 192.793 363.692C183.798 362.225 179.287 361.45 170.264 359.789Z" fill="white"/>
<path d="M297.055 376.203C304.334 382.07 307.988 384.976 315.267 390.761C312.499 399.147 311.088 403.326 308.32 411.685C315.599 406.924 319.252 404.489 326.531 399.618C333.81 405.319 337.464 408.142 344.743 413.761C341.975 405.07 340.564 400.725 337.796 392.034C345.075 387.08 348.729 384.589 356.008 379.579C346.985 379.247 342.501 379.053 333.478 378.583C330.71 369.864 329.327 365.519 326.531 356.773C323.736 365.187 322.352 369.394 319.584 377.78C310.561 377.226 306.05 376.922 297.055 376.203Z" fill="white"/>
<path d="M423.848 380.465C431.127 385.696 434.78 388.297 442.06 393.445C439.264 402.081 437.881 406.371 435.085 414.979C442.392 409.581 446.017 406.869 453.324 401.389C460.603 406.482 464.257 409.028 471.536 414.037C468.741 405.596 467.357 401.361 464.562 392.864C471.869 387.356 475.494 384.561 482.801 378.97C473.778 379.33 469.267 379.496 460.272 379.773C457.476 371.276 456.092 367.041 453.324 358.544C450.529 367.179 449.145 371.497 446.35 380.132C437.354 380.326 432.843 380.409 423.848 380.465Z" fill="white"/>
<path d="M550.609 374.874C557.916 379.607 561.542 381.96 568.849 386.637C566.054 395.438 564.67 399.839 561.874 408.641C569.154 402.745 572.807 399.784 580.086 393.833C587.393 398.483 591.019 400.78 598.298 405.347C595.53 397.072 594.146 392.92 591.351 384.617C598.63 378.638 602.283 375.621 609.562 369.588C600.567 370.501 596.056 370.944 587.061 371.774C584.266 363.471 582.881 359.32 580.086 351.016C577.318 359.818 575.907 364.218 573.139 373.047C564.144 373.822 559.632 374.182 550.609 374.874Z" fill="white"/>
<path d="M677.404 361.756C684.683 366.129 688.337 368.315 695.616 372.633C692.848 381.573 691.437 386.029 688.669 394.969C695.948 388.714 699.602 385.586 706.881 379.303C714.16 383.593 717.813 385.724 725.092 390.014C722.325 381.822 720.913 377.753 718.145 369.561C725.425 363.25 729.078 360.095 736.357 353.757C727.335 355.03 722.851 355.667 713.828 356.912C711.06 348.747 709.676 344.651 706.881 336.458C704.085 345.398 702.701 349.882 699.933 358.822C690.91 360.04 686.399 360.621 677.404 361.756Z" fill="white"/>
<path d="M107.271 184.149C114.551 191.235 118.176 194.722 125.483 201.641C122.688 209.585 121.304 213.57 118.508 221.486C125.815 217.86 129.441 216.034 136.748 212.297C144.027 219.161 147.653 222.565 154.96 229.291C152.164 220.185 150.78 215.618 147.985 206.485C155.292 202.665 158.918 200.728 166.197 196.798C157.202 195.137 152.69 194.224 143.695 192.369C140.9 183.208 139.516 178.641 136.748 169.48C133.953 177.451 132.568 181.437 129.773 189.38C120.778 187.387 116.267 186.336 107.271 184.149Z" fill="white"/>
<path d="M234.035 207.481C241.342 213.709 244.968 216.809 252.275 222.925C249.479 231.173 248.095 235.297 245.3 243.545C252.579 239.117 256.233 236.875 263.512 232.336C270.819 238.397 274.444 241.386 281.723 247.337C278.955 238.535 277.572 234.107 274.776 225.278C282.055 220.683 285.709 218.359 292.988 213.653C283.993 212.934 279.481 212.519 270.486 211.633C267.691 202.804 266.307 198.376 263.512 189.519C260.744 197.794 259.333 201.918 256.565 210.166C247.542 209.197 243.058 208.644 234.035 207.481Z" fill="white"/>
<path d="M360.826 217.499C368.105 223.035 371.759 225.775 379.038 231.227C376.27 239.724 374.858 243.987 372.091 252.484C379.37 247.363 383.024 244.789 390.303 239.586C397.582 244.983 401.236 247.64 408.515 252.954C405.747 244.374 404.335 240.084 401.567 231.504C408.846 226.273 412.5 223.616 419.779 218.274C410.756 218.33 406.273 218.33 397.25 218.247C394.482 209.667 393.098 205.376 390.303 196.769C387.507 205.293 386.124 209.556 383.356 218.08C374.333 217.914 369.821 217.804 360.826 217.499Z" fill="white"/>
<path d="M487.617 216.53C494.896 221.484 498.55 223.948 505.829 228.847C503.034 237.565 501.65 241.938 498.854 250.629C506.161 244.955 509.787 242.132 517.094 236.375C524.373 241.246 528.027 243.654 535.306 248.442C532.51 240.056 531.126 235.877 528.331 227.49C535.638 221.706 539.263 218.8 546.57 212.96C537.547 213.652 533.036 213.956 524.041 214.537C521.245 206.151 519.861 201.944 517.094 193.558C514.298 202.276 512.915 206.649 510.119 215.368C501.124 215.894 496.612 216.115 487.617 216.53Z" fill="white"/>
<path d="M614.379 206.872C621.686 211.383 625.312 213.653 632.618 218.137C629.823 226.994 628.439 231.45 625.644 240.307C632.923 234.218 636.576 231.173 643.855 225.029C651.162 229.485 654.788 231.699 662.067 236.1C659.3 227.879 657.916 223.755 655.121 215.535C662.4 209.363 666.053 206.263 673.332 200.063C664.337 201.198 659.826 201.752 650.831 202.804C648.035 194.556 646.651 190.432 643.855 182.211C641.088 191.096 639.676 195.524 636.909 204.409C627.913 205.433 623.402 205.931 614.379 206.872Z" fill="white"/>
<path d="M106.885 292.118C114.164 299.175 117.818 302.663 125.097 309.61C122.329 317.553 120.917 321.511 118.149 329.427C125.428 325.829 129.082 324.002 136.361 320.266C143.64 327.13 147.294 330.534 154.573 337.26C151.806 328.154 150.394 323.587 147.626 314.453C154.905 310.634 158.559 308.696 165.838 304.766C156.815 303.078 152.331 302.192 143.308 300.31C140.541 291.177 139.157 286.61 136.361 277.449C133.566 285.392 132.182 289.378 129.414 297.321C120.391 295.328 115.88 294.304 106.885 292.118Z" fill="white"/>
<path d="M233.674 315.479C240.953 321.707 244.607 324.806 251.886 330.923C249.09 339.171 247.707 343.295 244.939 351.543C252.218 347.114 255.844 344.873 263.15 340.333C270.43 346.395 274.083 349.412 281.362 355.362C278.567 346.533 277.183 342.133 274.387 333.304C281.694 328.681 285.32 326.384 292.627 321.679C283.604 320.932 279.093 320.516 270.097 319.631C267.302 310.802 265.918 306.373 263.15 297.516C260.355 305.792 258.971 309.916 256.176 318.164C247.181 317.168 242.669 316.642 233.674 315.479Z" fill="white"/>
<path d="M360.465 325.525C367.744 331.061 371.37 333.801 378.677 339.253C375.881 347.778 374.498 352.013 371.702 360.51C379.009 355.389 382.635 352.815 389.914 347.64C397.221 353.009 400.847 355.694 408.153 361.008C405.358 352.428 403.974 348.138 401.179 339.558C408.458 334.299 412.111 331.67 419.39 326.328C410.395 326.383 405.884 326.355 396.889 326.3C394.093 317.692 392.709 313.403 389.914 304.795C387.146 313.32 385.762 317.582 382.967 326.107C373.972 325.941 369.46 325.83 360.465 325.525Z" fill="white"/>
<path d="M487.229 324.584C494.508 329.538 498.161 332.002 505.441 336.901C502.673 345.619 501.261 349.992 498.494 358.683C505.773 353.036 509.426 350.186 516.705 344.457C523.984 349.3 527.638 351.708 534.917 356.496C532.149 348.138 530.738 343.931 527.97 335.572C535.249 329.787 538.902 326.881 546.182 321.041C537.186 321.705 532.675 322.038 523.653 322.591C520.885 314.205 519.5 310.026 516.705 301.612C513.91 310.358 512.526 314.703 509.758 323.449C500.735 323.947 496.251 324.169 487.229 324.584Z" fill="white"/>
<path d="M614.018 314.952C621.297 319.464 624.95 321.733 632.229 326.217C629.434 335.074 628.05 339.53 625.282 348.387C632.561 342.298 636.187 339.253 643.494 333.109C650.773 337.565 654.426 339.779 661.706 344.18C658.91 335.959 657.527 331.836 654.731 323.615C662.038 317.443 665.664 314.343 672.971 308.144C663.948 309.278 659.464 309.832 650.441 310.884C647.673 302.636 646.262 298.539 643.494 290.292C640.699 299.176 639.314 303.604 636.519 312.489C627.524 313.513 623.013 314.011 614.018 314.952Z" fill="white"/>
</mask>
<g mask="url(#mask0_33_330)">
<rect x="-19" y="-219.562" width="2041" height="1157" fill="black"/>
</g>
</g>
<path d="M6 -220.017C641.503 -12.2699 1284.56 -427.792 1920.09 -220.017C1920.09 115.379 1920.09 450.775 1920.09 786.171C1284.56 578.424 641.503 993.946 6 786.171C6 450.775 6 115.379 6 -220.017Z" fill="white"/>
<path d="M6 -220.017C641.503 -12.2698 1284.56 -427.792 1920.09 -220.017C1920.09 -189.074 1920.09 -173.574 1920.09 -142.631C1284.56 -350.378 641.503 65.1167 6 -142.631C6 -173.574 6 -189.074 6 -220.017Z" fill="#E71731"/>
<path d="M6 -65.2171C641.503 142.53 1284.56 -272.992 1920.09 -65.2171C1920.09 -34.2736 1920.09 -18.7743 1920.09 12.1691C1284.56 -195.578 641.503 219.916 6 12.1691C6 -18.7743 6 -34.2736 6 -65.2171Z" fill="#E71731"/>
<path d="M6 89.5827C641.503 297.33 1284.56 -118.165 1920.09 89.5827C1920.09 120.526 1920.09 136.025 1920.09 166.969C1284.56 -40.7784 641.503 374.716 6 166.969C6 136.025 6 120.526 6 89.5827Z" fill="#E71731"/>
<path d="M6 244.383C641.503 452.13 1284.56 36.6352 1920.09 244.383C1920.09 275.326 1920.09 290.825 1920.09 321.769C1284.56 114.021 641.503 529.516 6 321.769C6 290.825 6 275.326 6 244.383Z" fill="#E71731"/>
<path d="M6 399.185C641.503 606.932 1284.56 191.438 1920.09 399.185C1920.09 430.128 1920.09 445.628 1920.09 476.571C1284.56 268.824 641.503 684.319 6 476.571C6 445.628 6 430.128 6 399.185Z" fill="#E71731"/>
<path d="M6 553.984C641.503 761.731 1284.56 346.236 1920.09 553.984C1920.09 584.955 1920.09 600.427 1920.09 631.398C1284.56 423.623 641.503 839.117 6 631.398C6 600.427 6 584.955 6 553.984Z" fill="#E71731"/>
<path d="M6 708.785C641.503 916.532 1284.56 501.037 1920.09 708.785C1920.09 739.756 1920.09 755.227 1920.09 786.171C1284.56 578.424 641.503 993.946 6 786.171C6 755.227 6 739.756 6 708.785Z" fill="#E71731"/>
<path d="M6 -220.016C257.201 -137.731 512.609 -149.743 770.729 -188.021C770.729 -7.39756 770.729 173.198 770.729 353.794C512.609 392.072 257.201 404.084 6 321.771C6 141.175 6 -39.4206 6 -220.016Z" fill="#304F7D"/>
<path d="M168.715 -24.5045C175.994 -17.8619 179.647 -14.5683 186.926 -8.03639C184.159 0.0454449 182.747 4.08636 179.979 12.1682C187.259 8.15495 190.912 6.10687 198.191 1.98292C205.471 8.43178 209.124 11.6423 216.403 17.9805C213.607 9.01296 212.224 4.52931 209.456 -4.46588C216.735 -8.67286 220.361 -10.804 227.668 -15.1217C218.645 -16.3119 214.161 -16.9762 205.138 -18.36C202.371 -27.3276 200.959 -31.839 198.191 -40.8342C195.396 -32.7247 194.012 -28.6562 191.216 -20.5467C182.221 -22.0413 177.71 -22.8162 168.715 -24.5045Z" fill="white"/>
<path d="M295.506 -7.89802C302.785 -2.03039 306.411 0.87564 313.718 6.66024C310.922 15.0465 309.538 19.226 306.743 27.5846C314.05 22.8241 317.676 20.4161 324.955 15.5449C332.262 21.2464 335.888 24.0973 343.194 29.7158C340.399 21.0251 339.015 16.6519 336.219 7.96114C343.526 3.03454 347.152 0.543564 354.431 -4.49374C345.436 -4.82587 340.925 -5.01951 331.929 -5.49003C329.134 -14.2084 327.75 -18.5814 324.955 -27.2998C322.187 -18.8859 320.803 -14.7067 318.008 -6.29278C309.013 -6.87401 304.501 -7.17841 295.506 -7.89802Z" fill="white"/>
<path d="M422.27 -3.49606C429.576 1.73499 433.202 4.33652 440.482 9.48453C437.714 18.1199 436.329 22.4099 433.534 31.0176C440.813 25.6205 444.467 22.9082 451.746 17.428C459.025 22.5484 462.679 25.067 469.958 30.1043C467.19 21.635 465.806 17.4003 463.011 8.93098C470.29 3.39548 473.943 0.627677 481.223 -4.96318C472.227 -4.60337 467.716 -4.4372 458.721 -4.16042C455.925 -12.6574 454.542 -16.8921 451.746 -25.3891C448.978 -16.7537 447.567 -12.4359 444.799 -3.82824C435.776 -3.6345 431.292 -3.57909 422.27 -3.49606Z" fill="white"/>
<path d="M549.061 -8.97652C556.34 -4.24367 559.993 -1.89108 567.273 2.78642C564.477 11.5879 563.093 15.9886 560.326 24.79C567.605 18.8947 571.258 15.9332 578.537 9.98257C585.816 14.6324 589.47 16.9297 596.749 21.5241C593.954 13.2209 592.57 9.06927 589.802 0.766015C597.081 -5.21233 600.707 -8.22912 608.014 -14.2628C598.991 -13.3495 594.507 -12.9065 585.484 -12.0762C582.716 -20.3794 581.305 -24.5311 578.537 -32.8343C575.742 -24.0329 574.358 -19.6321 571.563 -10.8307C562.567 -10.0557 558.056 -9.66846 549.061 -8.97652Z" fill="white"/>
<path d="M675.852 -22.0392C683.131 -17.6661 686.784 -15.4797 694.064 -11.162C691.268 -2.22214 689.884 2.23399 687.089 11.1738C694.396 4.91871 698.021 1.79099 705.301 -4.4918C712.607 -0.174111 716.233 1.95711 723.54 6.21945C720.745 -1.94542 719.361 -6.04163 716.566 -14.2065C723.872 -20.517 727.498 -23.6724 734.777 -30.0105C725.782 -28.7374 721.271 -28.1007 712.276 -26.8552C709.48 -35.0477 708.096 -39.1164 705.328 -47.309C702.533 -38.3691 701.149 -33.8853 698.354 -24.9732C689.358 -23.7553 684.847 -23.174 675.852 -22.0392Z" fill="white"/>
<path d="M106.885 16.8207C114.164 23.8785 117.818 27.3659 125.097 34.313C122.329 42.2564 120.917 46.2142 118.149 54.1299C125.428 50.5319 129.082 48.7053 136.361 44.9688C143.64 51.8328 147.294 55.2373 154.573 61.9629C151.806 52.857 150.394 48.2901 147.626 39.1565C154.905 35.337 158.559 33.3995 165.838 29.497C156.815 27.781 152.331 26.8955 143.308 25.0134C140.541 15.8798 139.157 11.3129 136.361 2.15163C133.566 10.1228 132.182 14.0806 129.414 22.024C120.391 20.0312 115.88 19.0072 106.885 16.8207Z" fill="white"/>
<path d="M233.674 40.1793C240.953 46.4068 244.607 49.5066 251.886 55.6233C249.09 63.8712 247.707 67.9952 244.939 76.2431C252.218 71.8147 255.844 69.5728 263.15 65.0337C270.43 71.095 274.083 74.1118 281.362 80.0625C278.567 71.2334 277.183 66.8326 274.387 58.0035C281.694 53.409 285.32 51.0841 292.627 46.3789C283.604 45.6316 279.093 45.2443 270.097 44.3309C267.302 35.5018 265.918 31.0733 263.15 22.2165C260.355 30.4921 258.971 34.6162 256.176 42.8641C247.181 41.8954 242.669 41.3418 233.674 40.1793Z" fill="white"/>
<path d="M360.438 50.2539C367.744 55.7618 371.37 58.5295 378.677 63.9543C375.882 72.479 374.498 76.7138 371.703 85.2108C378.982 80.1182 382.635 77.5165 389.914 72.3408C397.221 77.7102 400.847 80.3949 408.154 85.709C405.358 77.129 403.975 72.8389 401.179 64.2589C408.458 59.0002 412.111 56.3709 419.391 51.0291C410.395 51.0845 405.884 51.0843 396.889 51.0013C394.094 42.3936 392.709 38.1035 389.914 29.4958C387.146 38.0205 385.735 42.2828 382.967 50.8075C373.972 50.6414 369.46 50.5307 360.438 50.2539Z" fill="white"/>
<path d="M487.229 49.2841C494.508 54.266 498.161 56.7295 505.441 61.6284C502.673 70.3191 501.261 74.6921 498.494 83.3828C505.773 77.7366 509.426 74.886 516.705 69.1567C523.984 74.0003 527.638 76.4082 534.917 81.1965C532.149 72.8378 530.738 68.6308 527.97 60.2445C535.249 54.4876 538.902 51.5814 546.182 45.7414C537.159 46.4057 532.675 46.738 523.653 47.2915C520.885 38.9052 519.5 34.7257 516.705 26.3117C513.91 35.0578 512.526 39.4033 509.758 48.1494C500.735 48.6476 496.224 48.8689 487.229 49.2841Z" fill="white"/>
<path d="M614.018 39.6535C621.297 44.165 624.95 46.4346 632.229 50.9183C629.434 59.8028 628.05 64.2311 625.255 73.0879C632.561 66.9988 636.187 63.9545 643.494 57.8101C650.773 62.2662 654.426 64.4804 661.706 68.8811C658.91 60.6609 657.527 56.5367 654.731 48.3165C662.038 42.1444 665.664 39.0447 672.971 32.845C663.948 33.9797 659.436 34.5331 650.441 35.5849C647.646 27.3647 646.262 23.2409 643.494 14.993C640.699 23.8774 639.314 28.3059 636.519 37.1904C627.524 38.2144 623.013 38.7125 614.018 39.6535Z" fill="white"/>
<path d="M43.8633 53.3829C51.1425 60.9112 54.7956 64.6475 62.0748 72.0374C59.2793 79.8147 57.8957 83.6897 55.1002 91.4394C62.4071 88.2842 66.033 86.6788 73.3398 83.3851C80.619 90.692 84.2721 94.3179 91.5513 101.486C88.7559 92.2144 87.3722 87.5644 84.5768 78.2648C91.8836 74.8881 95.5095 73.1721 102.816 69.6848C93.7935 67.4706 89.282 66.3081 80.2868 63.8725C77.4913 54.5728 76.1076 49.8953 73.3398 40.568C70.5444 48.373 69.1602 52.2481 66.3648 60.0255C57.3696 57.4791 52.8585 56.1506 43.8633 53.3829Z" fill="white"/>
<path d="M170.625 84.2409C177.932 90.8835 181.557 94.1769 188.864 100.681C186.069 108.791 184.685 112.832 181.89 120.914C189.169 116.873 192.822 114.824 200.102 110.673C207.408 117.122 211.034 120.304 218.313 126.643C215.545 117.675 214.161 113.191 211.366 104.224C218.645 99.9891 222.299 97.8581 229.578 93.5404C220.583 92.3503 216.071 91.7138 207.076 90.3299C204.281 81.3624 202.897 76.8509 200.102 67.8557C197.334 75.9929 195.922 80.0338 193.154 88.1433C184.159 86.6764 179.648 85.9015 170.625 84.2409Z" fill="white"/>
<path d="M297.418 100.627C304.697 106.495 308.35 109.401 315.629 115.186C312.862 123.572 311.45 127.751 308.682 136.138C315.962 131.349 319.615 128.914 326.895 124.042C334.174 129.744 337.827 132.567 345.106 138.186C342.338 129.495 340.927 125.149 338.159 116.459C345.438 111.504 349.092 109.014 356.371 103.976C347.348 103.672 342.864 103.45 333.841 103.008C331.074 94.2891 329.69 89.9438 326.895 81.1977C324.099 89.6117 322.715 93.8185 319.948 102.205C310.925 101.651 306.413 101.347 297.418 100.627Z" fill="white"/>
<path d="M424.207 104.861C431.486 110.092 435.14 112.694 442.419 117.842C439.624 126.477 438.239 130.767 435.472 139.375C442.751 133.978 446.377 131.266 453.684 125.785C460.963 130.878 464.616 133.424 471.896 138.434C469.1 129.965 467.716 125.73 464.948 117.261C472.227 111.725 475.853 108.958 483.16 103.339C474.137 103.727 469.653 103.893 460.631 104.169C457.863 95.6724 456.451 91.4377 453.684 82.9407C450.888 91.5761 449.504 95.8938 446.709 104.529C437.714 104.723 433.202 104.806 424.207 104.861Z" fill="white"/>
<path d="M550.998 99.271C558.277 104.004 561.903 106.329 569.21 111.006C566.415 119.808 565.03 124.208 562.235 133.01C569.514 127.114 573.168 124.153 580.447 118.202C587.754 122.852 591.38 125.15 598.687 129.716C595.891 121.441 594.507 117.289 591.712 108.986C598.991 103.007 602.644 99.9906 609.924 93.9569C600.928 94.8703 596.417 95.3132 587.422 96.1435C584.626 87.8403 583.242 83.6887 580.447 75.3854C577.679 84.1869 576.296 88.5875 573.5 97.4166C564.505 98.1916 559.993 98.5514 550.998 99.271Z" fill="white"/>
<path d="M677.762 86.1234C685.041 90.4965 688.695 92.6554 695.974 96.9731C693.206 105.913 691.795 110.396 689.027 119.309C696.306 113.081 699.959 109.926 707.238 103.643C714.517 107.961 718.171 110.092 725.45 114.354C722.683 106.19 721.271 102.093 718.503 93.9007C725.783 87.6179 729.436 84.4351 736.715 78.0969C727.72 79.3978 723.208 80.0344 714.185 81.2799C711.417 73.0873 710.034 68.9909 707.238 60.8261C704.443 69.7659 703.059 74.2219 700.291 83.1894C691.268 84.3796 686.785 84.9886 677.762 86.1234Z" fill="white"/>
<path d="M45.0527 160.715C52.3319 168.215 55.9856 171.952 63.2647 179.342C60.4693 187.091 59.0851 190.994 56.2897 198.716C63.5966 195.561 67.2224 193.955 74.5293 190.662C81.8085 197.969 85.4344 201.594 92.7413 208.763C89.9459 199.463 88.5617 194.813 85.7662 185.514C93.0731 182.165 96.699 180.421 104.006 176.934C94.983 174.719 90.4714 173.557 81.4762 171.149C78.6808 161.822 77.297 157.172 74.5293 147.845C71.7338 155.65 70.3502 159.524 67.5548 167.329C58.5596 164.783 54.0479 163.455 45.0527 160.715Z" fill="white"/>
<path d="M171.812 191.409C179.119 198.052 182.745 201.318 190.025 207.822C187.257 215.932 185.873 219.972 183.078 228.082C190.357 224.013 194.01 221.993 201.289 217.814C208.596 224.263 212.222 227.445 219.501 233.756C216.733 224.816 215.35 220.332 212.554 211.337C219.833 207.13 223.486 204.971 230.766 200.654C221.77 199.464 217.259 198.827 208.264 197.471C205.469 188.503 204.084 183.992 201.289 174.997C198.521 183.134 197.11 187.175 194.342 195.284C185.319 193.845 180.835 193.07 171.812 191.409Z" fill="white"/>
<path d="M298.609 207.684C305.889 213.552 309.542 216.458 316.821 222.215C314.054 230.601 312.642 234.781 309.874 243.167C317.154 238.379 320.807 235.943 328.086 231.044C335.365 236.746 339.019 239.569 346.298 245.188C343.53 236.497 342.119 232.151 339.351 223.461C346.63 218.506 350.283 216.015 357.562 210.978C348.54 210.646 344.056 210.48 335.033 210.009C332.266 201.318 330.854 196.945 328.086 188.227C325.29 196.641 323.907 200.848 321.139 209.234C312.116 208.708 307.605 208.376 298.609 207.684Z" fill="white"/>
<path d="M425.396 211.806C432.676 217.037 436.329 219.639 443.608 224.787C440.813 233.395 439.429 237.713 436.633 246.32C443.94 240.896 447.566 238.183 454.873 232.703C462.152 237.796 465.778 240.314 473.084 245.352C470.289 236.882 468.905 232.648 466.11 224.178C473.417 218.643 477.043 215.847 484.35 210.257C475.327 210.644 470.815 210.81 461.82 211.087C459.025 202.59 457.641 198.355 454.873 189.858C452.078 198.494 450.693 202.811 447.898 211.447C438.903 211.668 434.392 211.723 425.396 211.806Z" fill="white"/>
<path d="M552.162 206.106C559.469 210.838 563.094 213.191 570.374 217.868C567.606 226.67 566.222 231.071 563.427 239.872C570.706 233.977 574.359 231.015 581.639 225.037C588.946 229.687 592.571 231.984 599.85 236.551C597.082 228.275 595.699 224.123 592.903 215.82C600.182 209.814 603.836 206.825 611.115 200.764C602.12 201.705 597.608 202.148 588.613 202.978C585.818 194.675 584.434 190.523 581.639 182.22C578.871 191.049 577.459 195.45 574.691 204.251C565.668 205.054 561.185 205.414 552.162 206.106Z" fill="white"/>
<path d="M678.953 192.931C686.232 197.276 689.885 199.463 697.165 203.78C694.397 212.72 692.985 217.176 690.218 226.116C697.497 219.861 701.15 216.733 708.43 210.423C715.709 214.741 719.362 216.872 726.641 221.134C723.873 212.969 722.462 208.873 719.694 200.708C726.973 194.398 730.627 191.215 737.906 184.877C728.883 186.178 724.399 186.814 715.377 188.06C712.609 179.895 711.225 175.798 708.43 167.606C705.634 176.546 704.25 181.03 701.483 189.969C692.46 191.187 687.948 191.768 678.953 192.931Z" fill="white"/>
<path d="M43.5039 268.436C50.7831 275.965 54.4091 279.701 61.7159 287.091C58.9205 294.868 57.5363 298.743 54.7409 306.465C62.0477 303.338 65.6736 301.732 72.9805 298.466C80.2596 305.773 83.8856 309.371 91.1925 316.567C88.397 307.268 87.0128 302.618 84.2174 293.318C91.5243 289.969 95.1502 288.253 102.429 284.766C93.4342 282.524 88.9226 281.362 79.9274 278.926C77.132 269.626 75.7482 264.949 72.9805 255.621C70.185 263.427 68.8014 267.302 66.0059 275.079C57.0107 272.533 52.4991 271.204 43.5039 268.436Z" fill="white"/>
<path d="M170.264 299.351C177.571 305.994 181.196 309.26 188.503 315.764C185.708 323.873 184.324 327.914 181.528 335.996C188.807 331.983 192.461 329.935 199.74 325.783C207.047 332.232 210.673 335.415 217.952 341.753C215.184 332.785 213.8 328.302 211.005 319.334C218.284 315.099 221.938 312.968 229.217 308.651C220.222 307.461 215.71 306.824 206.715 305.44C203.919 296.445 202.536 291.961 199.74 282.966C196.972 291.076 195.561 295.144 192.793 303.254C183.798 301.787 179.287 301.012 170.264 299.351Z" fill="white"/>
<path d="M297.055 315.764C304.334 321.632 307.988 324.538 315.267 330.322C312.499 338.709 311.088 342.888 308.32 351.246C315.599 346.486 319.252 344.05 326.531 339.179C333.81 344.881 337.464 347.704 344.743 353.322C341.975 344.632 340.564 340.286 337.796 331.595C345.075 326.641 348.729 324.15 356.008 319.141C346.985 318.808 342.501 318.615 333.478 318.144C330.71 309.426 329.327 305.081 326.531 296.334C323.736 304.748 322.352 308.955 319.584 317.342C310.561 316.788 306.05 316.484 297.055 315.764Z" fill="white"/>
<path d="M423.848 320.026C431.127 325.257 434.78 327.859 442.06 333.007C439.264 341.642 437.881 345.932 435.085 354.54C442.392 349.143 446.017 346.431 453.324 340.95C460.603 346.043 464.257 348.589 471.536 353.599C468.741 345.157 467.357 340.923 464.562 332.426C471.869 326.918 475.494 324.123 482.801 318.532C473.778 318.892 469.267 319.057 460.272 319.334C457.476 310.837 456.092 306.602 453.324 298.105C450.529 306.741 449.145 311.059 446.35 319.694C437.354 319.888 432.843 319.971 423.848 320.026Z" fill="white"/>
<path d="M550.609 314.436C557.916 319.168 561.542 321.521 568.849 326.199C566.054 335 564.67 339.401 561.874 348.202C569.154 342.307 572.807 339.345 580.086 333.395C587.393 338.045 591.019 340.342 598.298 344.909C595.53 336.633 594.146 332.481 591.351 324.178C598.63 318.2 602.283 315.183 609.562 309.149C600.567 310.063 596.056 310.506 587.061 311.336C584.266 303.033 582.881 298.881 580.086 290.578C577.318 299.379 575.907 303.78 573.139 312.609C564.144 313.384 559.632 313.744 550.609 314.436Z" fill="white"/>
<path d="M677.404 301.317C684.683 305.69 688.337 307.877 695.616 312.194C692.848 321.134 691.437 325.59 688.669 334.53C695.948 328.275 699.602 325.147 706.881 318.865C714.16 323.155 717.813 325.286 725.092 329.576C722.325 321.383 720.913 317.315 718.145 309.122C725.425 302.812 729.078 299.657 736.357 293.318C727.335 294.592 722.851 295.228 713.828 296.474C711.06 288.309 709.676 284.212 706.881 276.02C704.085 284.96 702.701 289.443 699.933 298.383C690.91 299.601 686.399 300.182 677.404 301.317Z" fill="white"/>
<path d="M107.271 123.711C114.551 130.796 118.176 134.283 125.483 141.203C122.688 149.146 121.304 153.132 118.508 161.048C125.815 157.422 129.441 155.595 136.748 151.859C144.027 158.723 147.653 162.127 154.96 168.853C152.164 159.747 150.78 155.18 147.985 146.046C155.292 142.227 158.918 140.29 166.197 136.359C157.202 134.699 152.69 133.785 143.695 131.931C140.9 122.77 139.516 118.203 136.748 109.042C133.953 117.013 132.568 120.998 129.773 128.942C120.778 126.949 116.267 125.897 107.271 123.711Z" fill="white"/>
<path d="M234.035 147.043C241.342 153.27 244.968 156.37 252.275 162.487C249.479 170.735 248.095 174.859 245.3 183.107C252.579 178.678 256.233 176.436 263.512 171.897C270.819 177.959 274.444 180.948 281.723 186.898C278.955 178.097 277.572 173.669 274.776 164.839C282.055 160.245 285.709 157.92 292.988 153.215C283.993 152.495 279.481 152.08 270.486 151.194C267.691 142.365 266.307 137.937 263.512 129.08C260.744 137.356 259.333 141.48 256.565 149.728C247.542 148.759 243.058 148.205 234.035 147.043Z" fill="white"/>
<path d="M360.826 157.061C368.105 162.596 371.759 165.336 379.038 170.789C376.27 179.286 374.858 183.548 372.091 192.045C379.37 186.925 383.024 184.351 390.303 179.147C397.582 184.545 401.236 187.202 408.515 192.516C405.747 183.936 404.335 179.646 401.567 171.066C408.846 165.835 412.5 163.178 419.779 157.836C410.756 157.891 406.273 157.891 397.25 157.808C394.482 149.228 393.098 144.938 390.303 136.33C387.507 144.855 386.124 149.117 383.356 157.642C374.333 157.476 369.821 157.365 360.826 157.061Z" fill="white"/>
<path d="M487.617 156.092C494.896 161.046 498.55 163.509 505.829 168.408C503.034 177.127 501.65 181.5 498.854 190.19C506.161 184.517 509.787 181.693 517.094 175.937C524.373 180.808 528.027 183.216 535.306 188.004C532.51 179.618 531.126 175.438 528.331 167.052C535.638 161.267 539.263 158.361 546.57 152.521C537.547 153.213 533.036 153.518 524.041 154.099C521.245 145.713 519.861 141.506 517.094 133.119C514.298 141.838 512.915 146.211 510.119 154.929C501.124 155.455 496.612 155.677 487.617 156.092Z" fill="white"/>
<path d="M614.379 146.434C621.686 150.945 625.312 153.215 632.618 157.698C629.823 166.555 628.439 171.011 625.644 179.868C632.923 173.779 636.576 170.735 643.855 164.59C651.162 169.046 654.788 171.26 662.067 175.661C659.3 167.441 657.916 163.317 655.121 155.097C662.4 148.925 666.053 145.825 673.332 139.625C664.337 140.76 659.826 141.313 650.831 142.365C648.035 134.117 646.651 129.993 643.855 121.773C641.088 130.657 639.676 135.086 636.909 143.97C627.913 144.994 623.402 145.492 614.379 146.434Z" fill="white"/>
<path d="M106.885 231.679C114.164 238.737 117.818 242.224 125.097 249.171C122.329 257.115 120.917 261.073 118.149 268.989C125.428 265.391 129.082 263.564 136.361 259.827C143.64 266.691 147.294 270.096 154.573 276.821C151.806 267.715 150.394 263.148 147.626 254.015C154.905 250.195 158.559 248.258 165.838 244.328C156.815 242.639 152.331 241.754 143.308 239.872C140.541 230.738 139.157 226.171 136.361 217.01C133.566 224.953 132.182 228.939 129.414 236.883C120.391 234.89 115.88 233.866 106.885 231.679Z" fill="white"/>
<path d="M233.674 255.041C240.953 261.268 244.607 264.368 251.886 270.485C249.09 278.733 247.707 282.856 244.939 291.104C252.218 286.676 255.844 284.434 263.15 279.895C270.43 285.956 274.083 288.973 281.362 294.924C278.567 286.095 277.183 281.694 274.387 272.865C281.694 268.243 285.32 265.946 292.627 261.241C283.604 260.493 279.093 260.078 270.097 259.192C267.302 250.363 265.918 245.935 263.15 237.078C260.355 245.353 258.971 249.478 256.176 257.725C247.181 256.729 242.669 256.203 233.674 255.041Z" fill="white"/>
<path d="M360.465 265.087C367.744 270.622 371.37 273.362 378.677 278.815C375.881 287.34 374.498 291.574 371.702 300.071C379.009 294.951 382.635 292.377 389.914 287.201C397.221 292.571 400.847 295.255 408.153 300.569C405.358 291.989 403.974 287.699 401.179 279.119C408.458 273.861 412.111 271.231 419.39 265.889C410.395 265.945 405.884 265.917 396.889 265.862C394.093 257.254 392.709 252.964 389.914 244.356C387.146 252.881 385.762 257.143 382.967 265.668C373.972 265.502 369.46 265.391 360.465 265.087Z" fill="white"/>
<path d="M487.229 264.146C494.508 269.1 498.161 271.563 505.441 276.462C502.673 285.181 501.261 289.553 498.494 298.244C505.773 292.598 509.426 289.747 516.705 284.018C523.984 288.862 527.638 291.27 534.917 296.058C532.149 287.699 530.738 283.492 527.97 275.133C535.249 269.349 538.902 266.443 546.182 260.603C537.186 261.267 532.675 261.599 523.653 262.153C520.885 253.767 519.5 249.587 516.705 241.173C513.91 249.919 512.526 254.265 509.758 263.011C500.735 263.509 496.251 263.731 487.229 264.146Z" fill="white"/>
<path d="M614.018 254.514C621.297 259.025 624.95 261.295 632.229 265.778C629.434 274.635 628.05 279.091 625.282 287.948C632.561 281.859 636.187 278.815 643.494 272.67C650.773 277.126 654.426 279.34 661.706 283.741C658.91 275.521 657.527 271.397 654.731 263.177C662.038 257.005 665.664 253.905 672.971 247.705C663.948 248.84 659.464 249.393 650.441 250.445C647.673 242.197 646.262 238.101 643.494 229.853C640.699 238.738 639.314 243.166 636.519 252.05C627.524 253.075 623.013 253.573 614.018 254.514Z" fill="white"/>
</g>
<defs>
<clipPath id="clip0_33_330">
<rect width="1920" height="1080" fill="white"/>
</clipPath>
</defs>
</svg>
