<svg width="1920" height="1080" viewBox="0 0 1920 1080" fill="none" xmlns="http://www.w3.org/2000/svg">
<g clip-path="url(#clip0_34_498)">
<rect width="1920" height="1080" fill="white"/>
<path d="M1164.64 200.001L732.318 250.955L742.838 340.23L1920 201.42V200.001H1164.64Z" fill="#E71731"/>
<path d="M763.901 518.727L1920 382.393V291.893L753.354 429.479L763.901 518.727Z" fill="#E71731"/>
<path d="M784.939 697.22L1920 563.39V472.891L774.42 607.972L784.939 697.22Z" fill="#E71731"/>
<path d="M0 970.778L1920 744.363V653.891L0 880.279V970.778Z" fill="#E71731"/>
<path d="M0 1151.75L1920 925.361V834.862L0 1061.28V1151.75Z" fill="#E71731"/>
<path d="M1030.87 1211.19L1920 1106.33V1015.86L263.428 1211.19H1030.87Z" fill="#E71731"/>
<path d="M604.668 200H583.045L584.158 202.394L604.668 200Z" fill="#304F7D"/>
<path d="M65.9274 200H65.0371L65.0648 200.084L65.9274 200Z" fill="#304F7D"/>
<path d="M114.711 674.539L119.609 685.197L125.647 698.277L151.612 695.216L132.41 712.943L143.347 736.709L120.527 723.907L101.325 741.662L106.446 716.004L83.6258 703.23L109.59 700.169L112.429 686.032L114.711 674.539ZM62.8933 682.859L40.0736 670.058L20.8717 687.813L25.992 662.155L3.17233 649.382L29.1369 646.32L34.2573 620.662L45.194 644.428L71.1585 641.367L51.9566 659.094L62.8933 682.859ZM70.7131 578.251L96.6774 575.19L101.798 549.531L112.735 573.297L138.699 570.236L119.469 587.963L122.419 594.363L130.406 611.729L107.614 598.928L88.4125 616.683L92.1414 597.926L93.5051 591.024L70.7131 578.251ZM166.194 478.79L174.877 497.686L177.131 502.556L203.095 499.495L183.893 517.222L194.83 540.96L172.01 528.187L152.808 545.913L157.929 520.283L135.109 507.51L161.074 504.448L162.131 499.189L166.194 478.79ZM114.516 488.558L91.6962 475.757L72.4943 493.512L77.6146 467.853L54.7949 455.08L80.7595 452.019L85.8799 426.388L96.8166 450.127L122.781 447.065L103.579 464.792L114.516 488.558ZM120.165 384.367L146.129 381.306L151.222 355.675L162.159 379.414L188.123 376.352L168.921 394.107L174.96 407.186L179.858 417.845L163.272 408.55L157.066 405.072L151.807 409.914L137.836 422.798L140.146 411.278L142.957 397.168L120.165 384.367ZM41.5485 332.41L37.8473 330.351L63.8116 327.29L68.9042 301.659L79.8409 325.397L105.806 322.336L102.716 325.203L86.6036 340.063L97.5403 363.829L74.7483 351.028L55.5464 368.783L60.639 343.125L41.5485 332.41ZM134.636 230.362L134.887 230.918L145.573 254.128L171.537 251.066L152.307 268.794L163.244 292.531L140.452 279.758L121.251 297.485L126.343 271.855L103.551 259.081L129.516 256.02L134.497 230.974L134.636 230.362ZM209.997 310.064L215.117 284.406L226.054 308.143L252.018 305.082L248.901 307.976L232.816 322.837L243.753 346.575L220.933 333.802L201.732 351.529L206.852 325.898L187.734 315.184L184.032 313.125L209.997 310.064ZM280.821 213.136L281.072 213.692L291.758 236.874L317.723 233.812L298.521 251.567L309.457 275.305L286.638 262.532L267.436 280.259L272.556 254.629L249.736 241.827L275.701 238.766L280.71 213.72L280.821 213.136ZM356.21 292.81L361.303 267.179L372.239 290.918L398.204 287.856L395.087 290.723L379.002 305.583L389.939 329.349L367.147 316.548L347.917 334.302L353.037 308.672L333.919 297.93L330.246 295.871L356.21 292.81ZM502.395 275.583L507.488 249.925L518.424 273.691L544.389 270.63L541.3 273.496L525.187 288.357L536.124 312.095L513.332 299.322L494.13 317.049L499.222 291.418L480.132 280.704L476.431 278.645L502.395 275.583ZM648.58 258.33L653.701 232.699L664.637 256.438L690.602 253.376L687.485 256.242L671.4 271.103L682.337 294.869L659.517 282.096L640.315 299.823L645.436 274.164L626.317 263.45L622.616 261.391L648.58 258.33ZM618.442 366.139L601.856 356.844L595.65 353.338L590.39 358.208L576.42 371.093L578.73 359.571L581.54 345.434L558.749 332.661L584.713 329.6L589.805 303.969L600.742 327.707L626.707 324.646L607.505 342.373L613.544 355.452L618.442 366.139ZM699.284 419.598L676.465 406.797L657.263 424.552L662.383 398.921L639.591 386.12L665.556 383.059L670.648 357.429L681.585 381.166L707.55 378.105L688.348 395.86L699.284 419.598ZM615.714 450.822L641.679 447.761L622.477 465.516L633.413 489.254L610.594 476.48L591.392 494.208L596.512 468.577L573.693 455.776L599.657 452.714L600.714 447.483L604.778 427.084L613.46 445.952L615.714 450.822ZM715.203 542.769L692.383 529.968L673.181 547.722L676.91 528.966L678.301 522.064L655.482 509.291L681.446 506.23L686.567 480.599L697.503 504.337L723.468 501.276L704.266 519.003L707.216 525.404L715.203 542.769ZM710.416 629.317L736.38 626.256L717.178 644.01L728.115 667.749L705.323 654.975L686.121 672.702L691.214 647.072L668.422 634.27L694.387 631.209L697.197 617.072L699.507 605.579L704.405 616.237L710.416 629.317ZM255.803 682.943L258.614 668.806L260.924 657.285L265.822 667.943L271.833 681.05L297.797 677.989L278.595 695.717L289.532 719.455L266.74 706.681L247.538 724.408L252.631 698.778L229.839 686.004L255.803 682.943ZM175.322 629.066L180.442 603.436L191.379 627.174L217.344 624.113L198.142 641.868L209.078 665.605L186.259 652.832L167.057 670.559L172.177 644.929L149.385 632.128L175.322 629.066ZM312.379 461.564L321.09 480.432L323.316 485.302L349.28 482.241L330.078 499.996L341.015 523.734L318.195 510.961L298.993 528.687L304.114 503.057L281.322 490.256L307.287 487.195L308.316 481.935L312.379 461.564ZM226.945 434.765L232.065 409.134L243.002 432.9L268.966 429.839L249.764 447.566L260.701 471.304L237.881 458.531L218.679 476.258L223.8 450.627L201.008 437.826L226.945 434.765ZM553.099 436.824L530.28 424.051L511.078 441.778L516.198 416.148L493.378 403.374L519.343 400.313L524.463 374.654L535.4 398.42L561.365 395.359L542.163 413.086L553.099 436.824ZM469.501 468.076L495.466 465.015L476.264 482.742L487.201 506.508L464.409 493.707L445.207 511.462L450.299 485.803L427.508 473.029L453.472 469.968L454.502 464.709L458.592 444.338L467.275 463.206L469.501 468.076ZM561.003 542.658L568.989 559.995L546.198 547.222L526.996 564.949L530.725 546.219L532.088 539.318L509.297 526.517L535.261 523.456L540.381 497.825L551.318 521.563L577.282 518.502L558.053 536.257L561.003 542.658ZM647.662 613.9L624.842 601.098L605.64 618.853L610.761 593.195L587.969 580.421L613.933 577.36L619.026 551.73L629.963 575.468L655.927 572.407L636.725 590.134L647.662 613.9ZM321.535 611.84L326.656 586.182L337.565 609.948L363.529 606.886L344.327 624.614L355.264 648.38L332.472 635.579L313.27 653.333L318.363 627.675L295.571 614.901L321.535 611.84ZM501.477 631.126L478.657 618.352L459.455 636.079L464.575 610.449L441.756 597.648L467.72 594.586L472.841 568.956L483.777 592.694L509.742 589.633L490.54 607.388L501.477 631.126ZM406.886 454.078L384.094 441.277L364.893 459.032L369.985 433.373L347.193 420.6L373.158 417.539L378.278 391.908L389.215 415.647L415.151 412.585L395.949 430.312L406.886 454.078ZM363.111 543.771L389.076 540.71L394.168 515.051L405.105 538.817L431.07 535.756L411.868 553.483L414.817 559.884L422.804 577.249L400.012 564.447L380.783 582.202L384.54 563.446L385.903 556.544L363.111 543.771ZM418.046 663.797L444.01 660.735L424.808 678.49L435.745 702.229L412.925 689.427L393.723 707.182L398.844 681.552L376.024 668.75L401.988 665.689L404.799 651.552L407.109 640.059L412.007 650.717L418.046 663.797ZM564.231 646.571L590.195 643.51L570.993 661.237L581.93 684.975L559.11 672.201L539.908 689.928L545.029 664.298L522.237 651.524L548.201 648.463L551.012 634.326L553.294 622.805L558.22 633.463L564.231 646.571ZM412.535 349.887L438.5 346.825L443.62 321.195L454.557 344.961L480.522 341.872L461.32 359.627L467.331 372.706L472.256 383.365L455.67 374.07L449.437 370.591L444.205 375.434L430.235 388.319L432.544 376.798L435.355 362.688L412.535 349.887ZM266.35 367.141L292.315 364.079L297.435 338.449L308.372 362.187L334.336 359.126L315.134 376.853L321.145 389.933L326.043 400.619L309.485 391.324L303.252 387.818L297.992 392.66L284.05 405.573L286.331 394.051L289.17 379.914L266.35 367.141ZM216.898 560.997L242.863 557.936L247.983 532.305L258.92 556.043L284.884 552.982L265.683 570.737L268.632 577.11L276.619 594.475L253.8 581.701L234.598 599.429L238.327 580.7L239.718 573.798L216.898 560.997ZM774.422 607.972L763.903 518.725L753.356 429.477L742.837 340.23L732.317 250.955L726.306 200H609.425L590.891 217.087L601.828 240.826L579.036 228.052L559.834 245.779L564.927 220.149L542.135 207.347L568.099 204.286L568.962 200H428.899L437.943 219.647L463.908 216.586L444.706 234.314L455.642 258.08L432.85 245.278L413.621 263.033L418.741 237.375L395.949 224.601L421.914 221.54L426.2 200H397.229H373.297L374.521 202.672L375.161 204.035L373.046 202.839L367.954 200H342.908L334.948 207.32L333.14 208.989L333.446 207.514L334.948 200H219.153L228.336 219.898L228.976 221.262L226.833 220.065L206.156 208.488L188.736 224.573L186.954 226.215L187.26 224.74L192.075 200.585L190.99 200H87.8279L71.8263 214.75L82.151 237.152L82.763 238.516L80.6481 237.319L59.9713 225.714L42.5502 241.8L40.7693 243.469L41.0476 241.994L45.862 217.811L23.07 205.037L49.0346 201.976L49.424 200H0V246.837V271.298L25.3243 268.293L6.12236 286.048L17.0591 309.785L0 300.212V337.308V398.226L5.03692 372.929L15.9736 396.667L41.9382 393.606L22.7363 411.333L28.7472 424.413L33.673 435.099L17.0868 425.804L10.8533 422.298L5.62149 427.14L0 432.344V518.307V523.428L14.8885 521.675L15.9182 516.415L19.9811 496.044L28.6915 514.912L30.9178 519.782L56.8821 516.721L37.6802 534.476L48.6171 558.214L25.8252 545.441L6.62322 563.167L11.7159 537.537L0 530.942V608.807V699.307V713.11L5.42663 712.469L0 717.479V789.778L784.942 697.22L774.422 607.972Z" fill="#304F7D"/>
<path d="M0 1061.28L1920 834.862V744.362L0 970.778V1061.28Z" fill="white"/>
<path d="M774.422 607.973L1920 472.891V382.392L763.902 518.726L774.422 607.973Z" fill="white"/>
<path d="M742.836 340.23L753.355 429.478L1920 291.892V201.42L742.836 340.23Z" fill="white"/>
<path d="M784.942 697.22L0 789.779V880.278L1920 653.89V563.391L784.942 697.22Z" fill="white"/>
<path d="M1164.64 200H726.305L732.316 250.955L1164.64 200Z" fill="white"/>
<path d="M0 1211.19H263.428L1920 1015.86V925.362L0 1151.75V1211.19Z" fill="white"/>
<path d="M41.0479 241.996L40.7697 243.471L42.5505 241.801L59.9716 225.716L80.6484 237.32L82.7633 238.517L82.1513 237.153L71.8266 214.751L87.8282 200.002H65.9268L65.0642 200.085L65.0365 200.002H49.4243L49.0349 201.977L23.0703 205.039L45.8623 217.812L41.0479 241.996Z" fill="white"/>
<path d="M206.159 208.488L226.836 220.065L228.979 221.262L228.339 219.898L219.155 200.001H190.992L192.078 200.585L187.263 224.741L186.957 226.216L188.738 224.574L206.159 208.488Z" fill="white"/>
<path d="M375.161 204.036L374.521 202.672L373.296 200.001H367.953L373.046 202.84L375.161 204.036Z" fill="white"/>
<path d="M342.909 200H334.95L333.447 207.514L333.141 208.989L334.95 207.32L342.909 200Z" fill="white"/>
<path d="M6.12236 286.049L25.3243 268.294L0 271.3V300.214L17.0591 309.787L6.12236 286.049Z" fill="white"/>
<path d="M121.25 297.486L140.452 279.759L163.244 292.533L152.307 268.795L171.537 251.068L145.572 254.129L134.886 230.919L134.636 230.363L134.497 230.975L129.515 256.021L103.551 259.082L126.343 271.856L121.25 297.486Z" fill="white"/>
<path d="M267.434 280.259L286.636 262.532L309.455 275.305L298.519 251.567L317.721 233.812L291.756 236.873L281.07 213.692L280.819 213.136L280.708 213.72L275.699 238.766L249.734 241.827L272.554 254.628L267.434 280.259Z" fill="white"/>
<path d="M413.621 263.034L432.85 245.28L455.642 258.081L444.705 234.315L463.907 216.588L437.943 219.649L428.899 200.002H426.199L421.914 221.541L395.949 224.603L418.741 237.376L413.621 263.034Z" fill="white"/>
<path d="M559.832 245.779L579.034 228.053L601.826 240.826L590.889 217.088L609.423 200.001H604.664L584.154 202.394L583.041 200.001H568.96L568.097 204.287L542.133 207.348L564.925 220.149L559.832 245.779Z" fill="white"/>
<path d="M105.804 322.338L79.8393 325.399L68.9026 301.661L63.81 327.291L37.8457 330.353L41.5469 332.412L60.6374 343.126L55.5448 368.784L74.7467 351.03L97.5387 363.831L86.602 340.065L102.715 325.204L105.804 322.338Z" fill="white"/>
<path d="M206.853 325.9L201.732 351.53L220.934 333.803L243.754 346.577L232.817 322.839L248.902 307.978L252.019 305.084L226.055 308.145L215.118 284.407L209.998 310.065L184.033 313.126L187.734 315.186L206.853 325.9Z" fill="white"/>
<path d="M353.038 308.672L347.917 334.303L367.147 316.548L389.939 329.35L379.002 305.584L395.087 290.723L398.204 287.857L372.24 290.918L361.303 267.18L356.21 292.81L330.246 295.871L333.919 297.931L353.038 308.672Z" fill="white"/>
<path d="M499.219 291.419L494.127 317.049L513.329 299.322L536.121 312.096L525.184 288.357L541.297 273.497L544.386 270.631L518.421 273.692L507.485 249.926L502.392 275.584L476.428 278.645L480.129 280.704L499.219 291.419Z" fill="white"/>
<path d="M645.435 274.165L640.314 299.823L659.516 282.096L682.336 294.869L671.399 271.103L687.484 256.243L690.601 253.377L664.637 256.438L653.7 232.7L648.58 258.33L622.615 261.391L626.316 263.451L645.435 274.165Z" fill="white"/>
<path d="M10.8533 422.299L17.0868 425.806L33.673 435.101L28.7472 424.414L22.7363 411.335L41.9382 393.608L15.9736 396.669L5.03692 372.931L0 398.227V427.809V432.345L5.62149 427.142L10.8533 422.299Z" fill="white"/>
<path d="M162.162 379.415L151.225 355.677L146.132 381.307L120.168 384.368L142.96 397.169L140.149 411.279L137.839 422.8L151.809 409.915L157.069 405.073L163.275 408.552L179.861 417.847L174.963 407.188L168.924 394.108L188.126 376.354L162.162 379.415Z" fill="white"/>
<path d="M308.371 362.187L297.435 338.449L292.314 364.079L266.35 367.14L289.169 379.914L286.331 394.051L284.049 405.572L297.991 392.66L303.251 387.817L309.484 391.324L326.043 400.619L321.145 389.932L315.134 376.853L334.336 359.126L308.371 362.187Z" fill="white"/>
<path d="M454.555 344.961L443.618 321.195L438.498 346.825L412.533 349.886L435.353 362.688L432.542 376.797L430.233 388.318L444.203 375.433L449.434 370.591L455.668 374.07L472.254 383.365L467.328 372.706L461.317 359.626L480.519 341.872L454.555 344.961Z" fill="white"/>
<path d="M600.744 327.708L589.807 303.97L584.714 329.601L558.75 332.662L581.542 345.435L578.731 359.572L576.421 371.094L590.392 358.209L595.651 353.339L601.857 356.845L618.443 366.14L613.545 355.454L607.506 342.374L626.708 324.647L600.744 327.708Z" fill="white"/>
<path d="M72.4943 493.513L91.6962 475.758L114.516 488.559L103.579 464.793L122.781 447.066L96.8166 450.127L85.8799 426.389L80.7595 452.019L54.7949 455.081L77.6146 467.854L72.4943 493.513Z" fill="white"/>
<path d="M232.065 409.135L226.944 434.765L201.008 437.827L223.8 450.628L218.679 476.259L237.881 458.531L260.701 471.305L249.764 447.567L268.966 429.84L243.002 432.901L232.065 409.135Z" fill="white"/>
<path d="M378.28 391.909L373.16 417.539L347.195 420.601L369.987 433.374L364.895 459.032L384.097 441.277L406.888 454.078L395.952 430.312L415.154 412.586L389.217 415.647L378.28 391.909Z" fill="white"/>
<path d="M524.464 374.655L519.343 400.313L493.379 403.374L516.199 416.148L511.078 441.778L530.28 424.051L553.1 436.825L542.163 413.087L561.365 395.36L535.401 398.421L524.464 374.655Z" fill="white"/>
<path d="M681.584 381.167L670.647 357.43L665.554 383.06L639.59 386.121L662.382 398.922L657.261 424.553L676.463 406.798L699.283 419.599L688.346 395.861L707.548 378.106L681.584 381.167Z" fill="white"/>
<path d="M92.1392 597.927L88.4103 616.684L107.612 598.929L130.404 611.73L122.417 594.364L119.467 587.964L138.697 570.237L112.733 573.298L101.796 549.532L96.6752 575.191L70.7109 578.252L93.5029 591.025L92.1392 597.927Z" fill="white"/>
<path d="M238.327 580.701L234.598 599.43L253.8 581.702L276.619 594.476L268.632 577.111L265.683 570.738L284.885 552.983L258.92 556.044L247.983 532.306L242.863 557.937L216.898 560.998L239.718 573.799L238.327 580.701Z" fill="white"/>
<path d="M384.54 563.446L380.783 582.203L400.012 564.448L422.804 577.249L414.817 559.885L411.868 553.484L431.07 535.757L405.105 538.818L394.168 515.052L389.076 540.71L363.111 543.772L385.903 556.545L384.54 563.446Z" fill="white"/>
<path d="M530.725 546.22L526.996 564.949L546.198 547.222L568.99 559.995L561.003 542.658L558.053 536.258L577.283 518.503L551.319 521.564L540.382 497.826L535.261 523.456L509.297 526.518L532.089 539.319L530.725 546.22Z" fill="white"/>
<path d="M697.502 504.339L686.565 480.602L681.445 506.232L655.48 509.293L678.3 522.067L676.909 528.968L673.18 547.725L692.382 529.97L715.201 542.771L707.214 525.406L704.265 519.005L723.467 501.278L697.502 504.339Z" fill="white"/>
<path d="M0 713.11V717.479L5.42663 712.469L0 713.11Z" fill="white"/>
<path d="M125.647 698.278L119.608 685.198L114.71 674.54L112.428 686.033L109.589 700.17L83.625 703.231L106.445 716.005L101.324 741.663L120.526 723.908L143.346 736.71L132.409 712.944L151.611 695.217L125.647 698.278Z" fill="white"/>
<path d="M271.834 681.052L265.823 667.944L260.925 657.286L258.615 668.807L255.804 682.944L229.84 686.005L252.632 698.779L247.539 724.409L266.741 706.682L289.533 719.456L278.596 695.718L297.798 677.99L271.834 681.052Z" fill="white"/>
<path d="M418.047 663.796L412.008 650.717L407.11 640.059L404.8 651.552L401.99 665.689L376.025 668.75L398.845 681.551L393.724 707.182L412.926 689.427L435.746 702.228L424.809 678.49L444.011 660.735L418.047 663.796Z" fill="white"/>
<path d="M564.23 646.572L558.219 633.464L553.294 622.806L551.012 634.327L548.201 648.464L522.236 651.525L545.028 664.298L539.908 689.929L559.11 672.202L581.929 684.975L570.993 661.237L590.195 643.51L564.23 646.572Z" fill="white"/>
<path d="M710.416 629.318L704.405 616.239L699.507 605.58L697.197 617.074L694.386 631.21L668.422 634.272L691.214 647.073L686.121 672.703L705.323 654.976L728.115 667.75L717.178 644.012L736.38 626.257L710.416 629.318Z" fill="white"/>
<path d="M6.62322 563.168L25.8252 545.441L48.6171 558.215L37.6802 534.476L56.8821 516.721L30.9178 519.783L28.6915 514.913L19.9811 496.045L15.9182 516.415L14.8885 521.675L0 523.429V530.942L11.7159 537.538L6.62322 563.168Z" fill="white"/>
<path d="M174.879 497.687L166.196 478.791L162.133 499.189L161.076 504.449L135.111 507.51L157.931 520.284L152.81 545.914L172.012 528.187L194.832 540.961L183.895 517.223L203.097 499.496L177.133 502.557L174.879 497.687Z" fill="white"/>
<path d="M321.092 480.434L312.381 461.565L308.318 481.936L307.289 487.196L281.324 490.257L304.116 503.058L298.996 528.688L318.198 510.962L341.017 523.735L330.08 499.997L349.282 482.242L323.318 485.304L321.092 480.434Z" fill="white"/>
<path d="M467.273 463.206L458.591 444.338L454.5 464.709L453.47 469.969L427.506 473.03L450.298 485.803L445.205 511.462L464.407 493.707L487.199 506.508L476.262 482.742L495.464 465.015L469.5 468.077L467.273 463.206Z" fill="white"/>
<path d="M615.715 450.822L613.461 445.952L604.778 427.083L600.715 447.482L599.658 452.714L573.693 455.775L596.513 468.576L591.392 494.207L610.594 476.48L633.414 489.253L622.477 465.515L641.679 447.76L615.715 450.822Z" fill="white"/>
<path d="M45.1916 644.427L34.2549 620.661L29.1345 646.32L3.16992 649.381L25.9896 662.154L20.8693 687.812L40.0712 670.057L62.8909 682.859L51.9542 659.093L71.1561 641.366L45.1916 644.427Z" fill="white"/>
<path d="M191.381 627.173L180.444 603.436L175.323 629.066L149.387 632.127L172.179 644.928L167.058 670.559L186.26 652.832L209.08 665.605L198.143 641.867L217.345 624.112L191.381 627.173Z" fill="white"/>
<path d="M337.564 609.948L326.655 586.182L321.535 611.84L295.57 614.901L318.362 627.675L313.27 653.333L332.472 635.578L355.263 648.38L344.327 624.614L363.529 606.886L337.564 609.948Z" fill="white"/>
<path d="M483.776 592.695L472.839 568.957L467.718 594.587L441.754 597.648L464.574 610.45L459.453 636.08L478.655 618.353L501.475 631.127L490.538 607.389L509.74 589.634L483.776 592.695Z" fill="white"/>
<path d="M629.965 575.468L619.028 551.729L613.935 577.36L587.971 580.421L610.763 593.195L605.642 618.853L624.844 601.098L647.664 613.899L636.727 590.133L655.929 572.407L629.965 575.468Z" fill="white"/>
</g>
<defs>
<clipPath id="clip0_34_498">
<rect width="1920" height="1080" fill="white"/>
</clipPath>
</defs>
</svg>
