<svg width="148" height="140" viewBox="0 0 148 140" fill="none" xmlns="http://www.w3.org/2000/svg">
<path d="M16.1682 59.9124C17.3451 63.7515 19.7456 68.2957 23.826 69.8034C20.7535 69.7626 16.6899 71.1346 14.6136 72.5733C12.7557 73.8606 8.77505 74.9673 7.93807 77.241C6.97294 79.8629 10.0706 86.106 11.6569 88.1019C12.2611 88.8622 12.993 89.4294 13.8516 89.8714C14.2979 90.1011 15.2537 89.9182 15.2537 90.4205C15.2537 91.7019 12.6892 90.3489 11.413 90.451C9.63088 90.5937 3 92.8537 3 95.1798C3 97.6776 6.03578 101.469 7.51133 103.295C9.62406 105.909 12.6344 108.74 15.7719 110.098C17.383 110.796 19.1818 110.73 20.8624 111.166C21.2113 111.257 22.625 110.611 22.2646 111.075C20.3354 113.557 15.937 116.603 20.4357 118.854C28.8487 123.064 40.4145 125.253 49.6983 124.59C51.9239 124.431 51.0686 124.544 51.1614 126.542C51.2242 127.894 52.2571 129.494 53.4171 130.203C56.8784 132.32 62.0584 132.728 65.9147 133.254C72.4987 134.153 79.2091 134.515 85.667 132.705C86.1152 132.579 90.9938 130.695 91.1842 131.362C91.4139 132.167 90.666 133.36 90.666 134.23C90.666 140.191 98.8017 134.831 101.335 133.803C107.633 131.248 113.585 127.441 118.313 122.515C120.396 120.345 121.968 117.163 124.257 115.254C124.487 115.062 126.478 115.693 126.94 115.651C129.604 115.408 132.188 114.378 134.682 113.485C137.715 112.398 140.05 112.049 141.266 108.847C142.487 105.634 143.188 102.175 142.455 98.7493C141.941 96.3485 140.537 93.4922 138.645 91.8849C137.615 91.0105 139.482 91.5188 140.321 91.5188C145.083 91.5188 145.26 86.9633 144.863 83.0376C144.477 79.2204 143.762 75.1662 141.876 71.7801C140.117 68.6245 137.271 66.9343 134.56 64.7327C133.05 63.5069 131.898 63.2797 133.95 62.292C135.727 61.4369 137.857 61.0219 139.163 59.4243C140.623 57.6383 138.248 52.5142 137.73 50.882C136.11 45.7773 134.394 37.6835 129.622 34.4991C127.438 33.0416 124.684 32.1032 122.855 30.1364C121.747 28.9458 124.783 25.7253 125.446 24.889C128.529 20.998 124.344 17.4866 120.538 16.0417C116.853 14.6426 111.918 14.6361 108.071 14.9739C106.217 15.1367 101.214 17.3905 102.615 16.1637C104.207 14.7691 105.764 14.1445 106.395 11.8011C107.011 9.50889 106.704 6.27083 104.261 5.30282C89.5318 -0.532488 71.6003 5.68383 58.9953 13.2349C55.1583 15.5335 52.8917 17.0187 48.6314 15.462C45.0564 14.1557 42.6512 15.1065 39.3345 17.201C34.2771 20.3947 25.8274 26.0807 23.9716 32.272C23.7401 33.0443 24.2154 34.0953 24.2154 34.8957C24.2154 37.5457 20.5197 36.6042 18.7896 36.6042C15.9635 36.6042 14.699 37.7539 13.8516 40.4482C12.0023 46.3275 14.3341 53.9316 16.1005 59.6916L16.1682 59.9124Z" fill="white"/>
<path d="M24.8251 70.1021C20.1326 69.0183 17.4381 64.0549 16.1682 59.9124C14.3947 54.127 11.9785 46.4029 13.8516 40.4482C14.699 37.7539 15.9635 36.6042 18.7896 36.6042C20.5197 36.6042 24.2154 37.5457 24.2154 34.8957C24.2154 34.0953 23.7401 33.0443 23.9716 32.272C25.8274 26.0807 34.2771 20.3947 39.3345 17.201C42.6512 15.1065 45.0564 14.1557 48.6314 15.462C52.8917 17.0187 55.1583 15.5335 58.9953 13.2349C71.6003 5.68383 89.5318 -0.532488 104.261 5.30282C106.704 6.27083 107.011 9.50889 106.395 11.8011C105.764 14.1445 104.207 14.7691 102.615 16.1637C101.214 17.3905 106.217 15.1367 108.071 14.9739C111.918 14.6361 116.853 14.6426 120.538 16.0417C124.344 17.4866 128.529 20.998 125.446 24.889C124.783 25.7253 121.747 28.9458 122.855 30.1364C124.684 32.1032 127.438 33.0416 129.622 34.4991C134.394 37.6835 136.11 45.7773 137.73 50.882C138.248 52.5142 140.623 57.6383 139.163 59.4243C137.857 61.0219 135.727 61.4369 133.95 62.292C131.898 63.2797 133.05 63.5069 134.56 64.7327C137.271 66.9343 140.117 68.6245 141.876 71.7801C143.762 75.1662 144.477 79.2204 144.863 83.0376C145.26 86.9633 145.083 91.5188 140.321 91.5188C139.482 91.5188 137.615 91.0105 138.645 91.8849C140.537 93.4922 141.941 96.3485 142.455 98.7493C143.188 102.175 142.487 105.634 141.266 108.847C140.05 112.049 137.715 112.398 134.682 113.485C132.188 114.378 129.604 115.408 126.94 115.651C126.478 115.693 124.487 115.062 124.257 115.254C121.968 117.163 120.396 120.345 118.313 122.515C113.585 127.441 107.633 131.248 101.335 133.803C98.8017 134.831 90.666 140.191 90.666 134.23C90.666 133.36 91.4139 132.167 91.1842 131.362C90.9938 130.695 86.1152 132.579 85.667 132.705C79.2091 134.515 72.4987 134.153 65.9147 133.254C62.0584 132.728 56.8784 132.32 53.4171 130.203C52.2571 129.494 51.2242 127.894 51.1614 126.542C51.0686 124.544 51.9239 124.431 49.6983 124.59C40.4145 125.253 28.8487 123.064 20.4357 118.854C15.9371 116.603 20.3354 113.557 22.2646 111.075C22.625 110.611 21.2113 111.257 20.8624 111.166C19.1818 110.73 17.383 110.796 15.7719 110.098C12.6344 108.74 9.62406 105.909 7.51133 103.295C6.03578 101.469 3 97.6776 3 95.1798C3 92.8536 9.63088 90.5937 11.413 90.451C12.6892 90.3489 15.2537 91.7019 15.2537 90.4205C15.2537 89.9182 14.2979 90.1011 13.8516 89.8714C12.993 89.4294 12.2611 88.8622 11.6569 88.1019C10.0706 86.106 6.97294 79.8629 7.93807 77.241C8.77505 74.9673 12.7557 73.8606 14.6136 72.5733C17.194 70.7853 22.8434 69.1005 25.8458 70.1021" stroke="black" stroke-width="6" stroke-linecap="round"/>
<path d="M50.5957 70.9993L60.1341 66.8262V56.0955L70.8649 62.057L80.4033 57.884L60.1341 45.9609L50.5957 50.7301V70.9993Z" fill="black"/>
<path d="M112 50.7307L103.654 46.5576L92.9229 52.5191L100.077 56.096L50 79.346V91.269L57.75 94.8459L69.0768 90.0767L61.923 85.9036L112 63.2499V50.7307Z" fill="black"/>
<path d="M112.001 90.0768V71L103.059 74.5769V85.3076L91.7318 79.9423L82.1934 85.3076L103.059 95.4422L112.001 90.0768Z" fill="black"/>
<path d="M81.5956 96.0379L76.2303 93.6533L66.0957 98.4225L81.5956 106.769L97.0956 98.4225L88.1533 93.6533L81.5956 96.0379Z" fill="black"/>
<path d="M81.5956 35.2305L66.0957 42.9804L75.6341 48.942L81.5956 45.9612L86.3649 48.942L97.0956 44.1727L81.5956 35.2305Z" fill="black"/>
</svg>
